<svg viewBox="0 0 1248 1760"  version="1.1" xmlns="http://www.w3.org/2000/svg">
<g id="qubit_lines">
<path id="qubit_line:0" d="M64,64 L1216,64 " stroke="black"/>
<text dominant-baseline="central" text-anchor="end" font-family="monospace" font-size="12" x="64" y="64">q0</text>
<path id="qubit_line:1" d="M64,128 L1216,128 " stroke="black"/>
<text dominant-baseline="central" text-anchor="end" font-family="monospace" font-size="12" x="64" y="128">q1</text>
<path id="qubit_line:2" d="M64,192 L1216,192 " stroke="black"/>
<text dominant-baseline="central" text-anchor="end" font-family="monospace" font-size="12" x="64" y="192">q2</text>
<path id="qubit_line:3" d="M64,256 L1216,256 " stroke="black"/>
<text dominant-baseline="central" text-anchor="end" font-family="monospace" font-size="12" x="64" y="256">q3</text>
<path id="qubit_line:4" d="M64,320 L1216,320 " stroke="black"/>
<text dominant-baseline="central" text-anchor="end" font-family="monospace" font-size="12" x="64" y="320">q4</text>
<path id="qubit_line:5" d="M64,384 L1216,384 " stroke="black"/>
<text dominant-baseline="central" text-anchor="end" font-family="monospace" font-size="12" x="64" y="384">q5</text>
<path id="qubit_line:6" d="M64,448 L1216,448 " stroke="black"/>
<text dominant-baseline="central" text-anchor="end" font-family="monospace" font-size="12" x="64" y="448">q6</text>
<path id="qubit_line:7" d="M64,512 L1216,512 " stroke="black"/>
<text dominant-baseline="central" text-anchor="end" font-family="monospace" font-size="12" x="64" y="512">q7</text>
<path id="qubit_line:8" d="M64,576 L1216,576 " stroke="black"/>
<text dominant-baseline="central" text-anchor="end" font-family="monospace" font-size="12" x="64" y="576">q8</text>
<path id="qubit_line:9" d="M64,640 L1216,640 " stroke="black"/>
<text dominant-baseline="central" text-anchor="end" font-family="monospace" font-size="12" x="64" y="640">q9</text>
<path id="qubit_line:10" d="M64,704 L1216,704 " stroke="black"/>
<text dominant-baseline="central" text-anchor="end" font-family="monospace" font-size="12" x="64" y="704">q10</text>
<path id="qubit_line:11" d="M64,768 L1216,768 " stroke="black"/>
<text dominant-baseline="central" text-anchor="end" font-family="monospace" font-size="12" x="64" y="768">q11</text>
<path id="qubit_line:12" d="M64,832 L1216,832 " stroke="black"/>
<text dominant-baseline="central" text-anchor="end" font-family="monospace" font-size="12" x="64" y="832">q12</text>
<path id="qubit_line:13" d="M64,896 L1216,896 " stroke="black"/>
<text dominant-baseline="central" text-anchor="end" font-family="monospace" font-size="12" x="64" y="896">q13</text>
<path id="qubit_line:14" d="M64,960 L1216,960 " stroke="black"/>
<text dominant-baseline="central" text-anchor="end" font-family="monospace" font-size="12" x="64" y="960">q14</text>
<path id="qubit_line:15" d="M64,1024 L1216,1024 " stroke="black"/>
<text dominant-baseline="central" text-anchor="end" font-family="monospace" font-size="12" x="64" y="1024">q15</text>
<path id="qubit_line:16" d="M64,1088 L1216,1088 " stroke="black"/>
<text dominant-baseline="central" text-anchor="end" font-family="monospace" font-size="12" x="64" y="1088">q16</text>
<path id="qubit_line:17" d="M64,1152 L1216,1152 " stroke="black"/>
<text dominant-baseline="central" text-anchor="end" font-family="monospace" font-size="12" x="64" y="1152">q17</text>
<path id="qubit_line:18" d="M64,1216 L1216,1216 " stroke="black"/>
<text dominant-baseline="central" text-anchor="end" font-family="monospace" font-size="12" x="64" y="1216">q18</text>
<path id="qubit_line:19" d="M64,1280 L1216,1280 " stroke="black"/>
<text dominant-baseline="central" text-anchor="end" font-family="monospace" font-size="12" x="64" y="1280">q19</text>
<path id="qubit_line:20" d="M64,1344 L1216,1344 " stroke="black"/>
<text dominant-baseline="central" text-anchor="end" font-family="monospace" font-size="12" x="64" y="1344">q20</text>
<path id="qubit_line:21" d="M64,1408 L1216,1408 " stroke="black"/>
<text dominant-baseline="central" text-anchor="end" font-family="monospace" font-size="12" x="64" y="1408">q21</text>
<path id="qubit_line:22" d="M64,1472 L1216,1472 " stroke="black"/>
<text dominant-baseline="central" text-anchor="end" font-family="monospace" font-size="12" x="64" y="1472">q22</text>
<path id="qubit_line:23" d="M64,1536 L1216,1536 " stroke="black"/>
<text dominant-baseline="central" text-anchor="end" font-family="monospace" font-size="12" x="64" y="1536">q23</text>
<path id="qubit_line:24" d="M64,1600 L1216,1600 " stroke="black"/>
<text dominant-baseline="central" text-anchor="end" font-family="monospace" font-size="12" x="64" y="1600">q24</text>
<path id="qubit_line:25" d="M64,1664 L1216,1664 " stroke="black"/>
<text dominant-baseline="central" text-anchor="end" font-family="monospace" font-size="12" x="64" y="1664">q25</text>
</g>
<rect x="80" y="112" width="224" height="32" stroke="black" fill="white"/>
<text dominant-baseline="central" text-anchor="middle" font-family="monospace" font-size="16" x="192" y="128">COORDS(1,1)</text>
<rect x="80" y="176" width="224" height="32" stroke="black" fill="white"/>
<text dominant-baseline="central" text-anchor="middle" font-family="monospace" font-size="16" x="192" y="192">COORDS(2,0)</text>
<rect x="80" y="240" width="224" height="32" stroke="black" fill="white"/>
<text dominant-baseline="central" text-anchor="middle" font-family="monospace" font-size="16" x="192" y="256">COORDS(3,1)</text>
<rect x="80" y="368" width="224" height="32" stroke="black" fill="white"/>
<text dominant-baseline="central" text-anchor="middle" font-family="monospace" font-size="16" x="192" y="384">COORDS(5,1)</text>
<rect x="80" y="560" width="224" height="32" stroke="black" fill="white"/>
<text dominant-baseline="central" text-anchor="middle" font-family="monospace" font-size="16" x="192" y="576">COORDS(1,3)</text>
<rect x="80" y="624" width="224" height="32" stroke="black" fill="white"/>
<text dominant-baseline="central" text-anchor="middle" font-family="monospace" font-size="16" x="192" y="640">COORDS(2,2)</text>
<rect x="80" y="688" width="224" height="32" stroke="black" fill="white"/>
<text dominant-baseline="central" text-anchor="middle" font-family="monospace" font-size="16" x="192" y="704">COORDS(3,3)</text>
<rect x="80" y="752" width="224" height="32" stroke="black" fill="white"/>
<text dominant-baseline="central" text-anchor="middle" font-family="monospace" font-size="16" x="192" y="768">COORDS(4,2)</text>
<rect x="80" y="816" width="224" height="32" stroke="black" fill="white"/>
<text dominant-baseline="central" text-anchor="middle" font-family="monospace" font-size="16" x="192" y="832">COORDS(5,3)</text>
<rect x="80" y="880" width="224" height="32" stroke="black" fill="white"/>
<text dominant-baseline="central" text-anchor="middle" font-family="monospace" font-size="16" x="192" y="896">COORDS(6,2)</text>
<rect x="80" y="944" width="224" height="32" stroke="black" fill="white"/>
<text dominant-baseline="central" text-anchor="middle" font-family="monospace" font-size="16" x="192" y="960">COORDS(0,4)</text>
<rect x="80" y="1008" width="224" height="32" stroke="black" fill="white"/>
<text dominant-baseline="central" text-anchor="middle" font-family="monospace" font-size="16" x="192" y="1024">COORDS(1,5)</text>
<rect x="80" y="1072" width="224" height="32" stroke="black" fill="white"/>
<text dominant-baseline="central" text-anchor="middle" font-family="monospace" font-size="16" x="192" y="1088">COORDS(2,4)</text>
<rect x="80" y="1136" width="224" height="32" stroke="black" fill="white"/>
<text dominant-baseline="central" text-anchor="middle" font-family="monospace" font-size="16" x="192" y="1152">COORDS(3,5)</text>
<rect x="80" y="1200" width="224" height="32" stroke="black" fill="white"/>
<text dominant-baseline="central" text-anchor="middle" font-family="monospace" font-size="16" x="192" y="1216">COORDS(4,4)</text>
<rect x="80" y="1264" width="224" height="32" stroke="black" fill="white"/>
<text dominant-baseline="central" text-anchor="middle" font-family="monospace" font-size="16" x="192" y="1280">COORDS(5,5)</text>
<rect x="80" y="1648" width="224" height="32" stroke="black" fill="white"/>
<text dominant-baseline="central" text-anchor="middle" font-family="monospace" font-size="16" x="192" y="1664">COORDS(4,6)</text>
<rect x="336" y="112" width="32" height="32" stroke="black" fill="black"/>
<text dominant-baseline="central" text-anchor="middle" font-family="monospace" font-size="30" x="352" y="128" fill="white">R</text>
<rect x="336" y="240" width="32" height="32" stroke="black" fill="black"/>
<text dominant-baseline="central" text-anchor="middle" font-family="monospace" font-size="30" x="352" y="256" fill="white">R</text>
<rect x="336" y="368" width="32" height="32" stroke="black" fill="black"/>
<text dominant-baseline="central" text-anchor="middle" font-family="monospace" font-size="30" x="352" y="384" fill="white">R</text>
<rect x="336" y="560" width="32" height="32" stroke="black" fill="black"/>
<text dominant-baseline="central" text-anchor="middle" font-family="monospace" font-size="30" x="352" y="576" fill="white">R</text>
<rect x="336" y="688" width="32" height="32" stroke="black" fill="black"/>
<text dominant-baseline="central" text-anchor="middle" font-family="monospace" font-size="30" x="352" y="704" fill="white">R</text>
<rect x="336" y="816" width="32" height="32" stroke="black" fill="black"/>
<text dominant-baseline="central" text-anchor="middle" font-family="monospace" font-size="30" x="352" y="832" fill="white">R</text>
<rect x="336" y="1008" width="32" height="32" stroke="black" fill="black"/>
<text dominant-baseline="central" text-anchor="middle" font-family="monospace" font-size="30" x="352" y="1024" fill="white">R</text>
<rect x="336" y="1136" width="32" height="32" stroke="black" fill="black"/>
<text dominant-baseline="central" text-anchor="middle" font-family="monospace" font-size="30" x="352" y="1152" fill="white">R</text>
<rect x="336" y="1264" width="32" height="32" stroke="black" fill="black"/>
<text dominant-baseline="central" text-anchor="middle" font-family="monospace" font-size="30" x="352" y="1280" fill="white">R</text>
<rect x="336" y="176" width="32" height="32" stroke="black" fill="black"/>
<text dominant-baseline="central" text-anchor="middle" font-family="monospace" font-size="30" x="352" y="192" fill="white">R</text>
<rect x="336" y="624" width="32" height="32" stroke="black" fill="black"/>
<text dominant-baseline="central" text-anchor="middle" font-family="monospace" font-size="30" x="352" y="640" fill="white">R</text>
<rect x="336" y="752" width="32" height="32" stroke="black" fill="black"/>
<text dominant-baseline="central" text-anchor="middle" font-family="monospace" font-size="30" x="352" y="768" fill="white">R</text>
<rect x="336" y="880" width="32" height="32" stroke="black" fill="black"/>
<text dominant-baseline="central" text-anchor="middle" font-family="monospace" font-size="30" x="352" y="896" fill="white">R</text>
<rect x="336" y="944" width="32" height="32" stroke="black" fill="black"/>
<text dominant-baseline="central" text-anchor="middle" font-family="monospace" font-size="30" x="352" y="960" fill="white">R</text>
<rect x="336" y="1072" width="32" height="32" stroke="black" fill="black"/>
<text dominant-baseline="central" text-anchor="middle" font-family="monospace" font-size="30" x="352" y="1088" fill="white">R</text>
<rect x="336" y="1200" width="32" height="32" stroke="black" fill="black"/>
<text dominant-baseline="central" text-anchor="middle" font-family="monospace" font-size="30" x="352" y="1216" fill="white">R</text>
<rect x="336" y="1648" width="32" height="32" stroke="black" fill="black"/>
<text dominant-baseline="central" text-anchor="middle" font-family="monospace" font-size="30" x="352" y="1664" fill="white">R</text>
<path d="M68,40 L68,32 L380,32 L380,40 " stroke="black" fill="none"/>
<path d="M68,1720 L68,1728 L380,1728 L380,1720 " stroke="black" fill="none"/>
<rect x="400" y="176" width="32" height="32" stroke="black" fill="white"/>
<text dominant-baseline="central" text-anchor="middle" font-family="monospace" font-size="30" x="416" y="192">H</text>
<rect x="400" y="752" width="32" height="32" stroke="black" fill="white"/>
<text dominant-baseline="central" text-anchor="middle" font-family="monospace" font-size="30" x="416" y="768">H</text>
<rect x="400" y="1072" width="32" height="32" stroke="black" fill="white"/>
<text dominant-baseline="central" text-anchor="middle" font-family="monospace" font-size="30" x="416" y="1088">H</text>
<rect x="400" y="1648" width="32" height="32" stroke="black" fill="white"/>
<text dominant-baseline="central" text-anchor="middle" font-family="monospace" font-size="30" x="416" y="1664">H</text>
<path d="M480,192 L480,256 " stroke="black"/>
<circle cx="480" cy="192" r="12" stroke="none" fill="black"/>
<circle cx="480" cy="256" r="12" stroke="black" fill="white"/>
<path d="M468,256 L492,256 M480,244 L480,268 " stroke="black"/>
<path d="M480,1088 L480,1152 " stroke="black"/>
<circle cx="480" cy="1088" r="12" stroke="none" fill="black"/>
<circle cx="480" cy="1152" r="12" stroke="black" fill="white"/>
<path d="M468,1152 L492,1152 M480,1140 L480,1164 " stroke="black"/>
<path d="M480,768 L480,832 " stroke="black"/>
<circle cx="480" cy="768" r="12" stroke="none" fill="black"/>
<circle cx="480" cy="832" r="12" stroke="black" fill="white"/>
<path d="M468,832 L492,832 M480,820 L480,844 " stroke="black"/>
<path d="M480,960 L480,1024 " stroke="black"/>
<circle cx="480" cy="1024" r="12" stroke="none" fill="black"/>
<circle cx="480" cy="960" r="12" stroke="black" fill="white"/>
<path d="M468,960 L492,960 M480,948 L480,972 " stroke="black"/>
<path d="M480,640 L480,704 " stroke="black"/>
<circle cx="480" cy="704" r="12" stroke="none" fill="black"/>
<circle cx="480" cy="640" r="12" stroke="black" fill="white"/>
<path d="M468,640 L492,640 M480,628 L480,652 " stroke="black"/>
<path d="M480,1216 L480,1280 " stroke="black"/>
<circle cx="480" cy="1280" r="12" stroke="none" fill="black"/>
<circle cx="480" cy="1216" r="12" stroke="black" fill="white"/>
<path d="M468,1216 L492,1216 M480,1204 L480,1228 " stroke="black"/>
<path d="M544,128 L544,192 " stroke="black"/>
<circle cx="544" cy="192" r="12" stroke="none" fill="black"/>
<circle cx="544" cy="128" r="12" stroke="black" fill="white"/>
<path d="M532,128 L556,128 M544,116 L544,140 " stroke="black"/>
<path d="M544,1024 L544,1088 " stroke="black"/>
<circle cx="544" cy="1088" r="12" stroke="none" fill="black"/>
<circle cx="544" cy="1024" r="12" stroke="black" fill="white"/>
<path d="M532,1024 L556,1024 M544,1012 L544,1036 " stroke="black"/>
<path d="M544,704 L544,768 " stroke="black"/>
<circle cx="544" cy="768" r="12" stroke="none" fill="black"/>
<circle cx="544" cy="704" r="12" stroke="black" fill="white"/>
<path d="M532,704 L556,704 M544,692 L544,716 " stroke="black"/>
<path d="M608,576 L608,960 " stroke="black"/>
<circle cx="608" cy="576" r="12" stroke="none" fill="black"/>
<circle cx="608" cy="960" r="12" stroke="black" fill="white"/>
<path d="M596,960 L620,960 M608,948 L608,972 " stroke="black"/>
<path d="M672,256 L672,640 " stroke="black"/>
<circle cx="672" cy="256" r="12" stroke="none" fill="black"/>
<circle cx="672" cy="640" r="12" stroke="black" fill="white"/>
<path d="M660,640 L684,640 M672,628 L672,652 " stroke="black"/>
<path d="M672,832 L672,1216 " stroke="black"/>
<circle cx="672" cy="832" r="12" stroke="none" fill="black"/>
<circle cx="672" cy="1216" r="12" stroke="black" fill="white"/>
<path d="M660,1216 L684,1216 M672,1204 L672,1228 " stroke="black"/>
<path d="M516,40 L516,32 L700,32 L700,40 " stroke="black" fill="none"/>
<path d="M516,1720 L516,1728 L700,1728 L700,1720 " stroke="black" fill="none"/>
<path d="M736,704 L736,1088 " stroke="black"/>
<circle cx="736" cy="1088" r="12" stroke="none" fill="black"/>
<circle cx="736" cy="704" r="12" stroke="black" fill="white"/>
<path d="M724,704 L748,704 M736,692 L736,716 " stroke="black"/>
<path d="M800,384 L800,768 " stroke="black"/>
<circle cx="800" cy="768" r="12" stroke="none" fill="black"/>
<circle cx="800" cy="384" r="12" stroke="black" fill="white"/>
<path d="M788,384 L812,384 M800,372 L800,396 " stroke="black"/>
<path d="M800,1280 L800,1664 " stroke="black"/>
<circle cx="800" cy="1664" r="12" stroke="none" fill="black"/>
<circle cx="800" cy="1280" r="12" stroke="black" fill="white"/>
<path d="M788,1280 L812,1280 M800,1268 L800,1292 " stroke="black"/>
<path d="M864,576 L864,640 " stroke="black"/>
<circle cx="864" cy="576" r="12" stroke="none" fill="black"/>
<circle cx="864" cy="640" r="12" stroke="black" fill="white"/>
<path d="M852,640 L876,640 M864,628 L864,652 " stroke="black"/>
<path d="M864,1152 L864,1216 " stroke="black"/>
<circle cx="864" cy="1152" r="12" stroke="none" fill="black"/>
<circle cx="864" cy="1216" r="12" stroke="black" fill="white"/>
<path d="M852,1216 L876,1216 M864,1204 L864,1228 " stroke="black"/>
<path d="M864,832 L864,896 " stroke="black"/>
<circle cx="864" cy="832" r="12" stroke="none" fill="black"/>
<circle cx="864" cy="896" r="12" stroke="black" fill="white"/>
<path d="M852,896 L876,896 M864,884 L864,908 " stroke="black"/>
<path d="M708,40 L708,32 L892,32 L892,40 " stroke="black" fill="none"/>
<path d="M708,1720 L708,1728 L892,1728 L892,1720 " stroke="black" fill="none"/>
<path d="M928,576 L928,1088 " stroke="black"/>
<circle cx="928" cy="1088" r="12" stroke="none" fill="black"/>
<circle cx="928" cy="576" r="12" stroke="black" fill="white"/>
<path d="M916,576 L940,576 M928,564 L928,588 " stroke="black"/>
<path d="M992,256 L992,768 " stroke="black"/>
<circle cx="992" cy="768" r="12" stroke="none" fill="black"/>
<circle cx="992" cy="256" r="12" stroke="black" fill="white"/>
<path d="M980,256 L1004,256 M992,244 L992,268 " stroke="black"/>
<path d="M992,1152 L992,1664 " stroke="black"/>
<circle cx="992" cy="1664" r="12" stroke="none" fill="black"/>
<circle cx="992" cy="1152" r="12" stroke="black" fill="white"/>
<path d="M980,1152 L1004,1152 M992,1140 L992,1164 " stroke="black"/>
<path d="M1056,128 L1056,640 " stroke="black"/>
<circle cx="1056" cy="128" r="12" stroke="none" fill="black"/>
<circle cx="1056" cy="640" r="12" stroke="black" fill="white"/>
<path d="M1044,640 L1068,640 M1056,628 L1056,652 " stroke="black"/>
<path d="M1056,704 L1056,1216 " stroke="black"/>
<circle cx="1056" cy="704" r="12" stroke="none" fill="black"/>
<circle cx="1056" cy="1216" r="12" stroke="black" fill="white"/>
<path d="M1044,1216 L1068,1216 M1056,1204 L1056,1228 " stroke="black"/>
<path d="M1120,384 L1120,896 " stroke="black"/>
<circle cx="1120" cy="384" r="12" stroke="none" fill="black"/>
<circle cx="1120" cy="896" r="12" stroke="black" fill="white"/>
<path d="M1108,896 L1132,896 M1120,884 L1120,908 " stroke="black"/>
<path d="M900,40 L900,32 L1148,32 L1148,40 " stroke="black" fill="none"/>
<path d="M900,1720 L900,1728 L1148,1728 L1148,1720 " stroke="black" fill="none"/>
<rect x="1168" y="176" width="32" height="32" stroke="black" fill="white"/>
<text dominant-baseline="central" text-anchor="middle" font-family="monospace" font-size="30" x="1184" y="192">H</text>
<rect x="1168" y="752" width="32" height="32" stroke="black" fill="white"/>
<text dominant-baseline="central" text-anchor="middle" font-family="monospace" font-size="30" x="1184" y="768">H</text>
<rect x="1168" y="1072" width="32" height="32" stroke="black" fill="white"/>
<text dominant-baseline="central" text-anchor="middle" font-family="monospace" font-size="30" x="1184" y="1088">H</text>
<rect x="1168" y="1648" width="32" height="32" stroke="black" fill="white"/>
<text dominant-baseline="central" text-anchor="middle" font-family="monospace" font-size="30" x="1184" y="1664">H</text>
</svg>