<svg viewBox="0 0 416 416"  version="1.1" xmlns="http://www.w3.org/2000/svg">
<g id="qubit_lines">
<path id="qubit_line:0" d="M64,64 L384,64 " stroke="black"/>
<text dominant-baseline="central" text-anchor="end" font-family="monospace" font-size="12" x="64" y="64">q0</text>
<path id="qubit_line:1" d="M64,128 L384,128 " stroke="black"/>
<text dominant-baseline="central" text-anchor="end" font-family="monospace" font-size="12" x="64" y="128">q1</text>
<path id="qubit_line:2" d="M64,192 L384,192 " stroke="black"/>
<text dominant-baseline="central" text-anchor="end" font-family="monospace" font-size="12" x="64" y="192">q2</text>
<path id="qubit_line:3" d="M64,256 L384,256 " stroke="black"/>
<text dominant-baseline="central" text-anchor="end" font-family="monospace" font-size="12" x="64" y="256">q3</text>
<path id="qubit_line:4" d="M64,320 L384,320 " stroke="black"/>
<text dominant-baseline="central" text-anchor="end" font-family="monospace" font-size="12" x="64" y="320">q4</text>
</g>
<rect x="80" y="48" width="32" height="32" stroke="black" fill="black"/>
<text dominant-baseline="central" text-anchor="middle" font-family="monospace" font-size="30" x="96" y="64" fill="white">R</text>
<rect x="144" y="48" width="32" height="32" stroke="black" fill="pink"/>
<text dominant-baseline="central" text-anchor="middle" font-family="monospace" font-size="12" x="160" y="64">DEP<tspan baseline-shift="sub" font-size="10">1</tspan></text>
<text dominant-baseline="hanging" text-anchor="middle" font-family="monospace" font-size="10" stroke="red" x="160" y="84">1</text>
<rect x="144" y="112" width="32" height="32" stroke="black" fill="black"/>
<text dominant-baseline="central" text-anchor="middle" font-family="monospace" font-size="30" x="160" y="128" fill="white">R</text>
<rect x="144" y="176" width="32" height="32" stroke="black" fill="black"/>
<text dominant-baseline="central" text-anchor="middle" font-family="monospace" font-size="30" x="160" y="192" fill="white">R</text>
<rect x="144" y="240" width="32" height="32" stroke="black" fill="black"/>
<text dominant-baseline="central" text-anchor="middle" font-family="monospace" font-size="30" x="160" y="256" fill="white">R</text>
<rect x="144" y="304" width="32" height="32" stroke="black" fill="black"/>
<text dominant-baseline="central" text-anchor="middle" font-family="monospace" font-size="30" x="160" y="320" fill="white">R</text>
<rect x="208" y="48" width="32" height="32" stroke="black" fill="black"/>
<text dominant-baseline="central" text-anchor="middle" font-family="monospace" font-size="30" x="224" y="64" fill="white">M</text>
<text text-anchor="middle" font-family="monospace" font-size="8" x="224" y="44">rec[0]</text>
<rect x="208" y="112" width="32" height="32" stroke="black" fill="black"/>
<text dominant-baseline="central" text-anchor="middle" font-family="monospace" font-size="30" x="224" y="128" fill="white">M</text>
<text text-anchor="middle" font-family="monospace" font-size="8" x="224" y="108">rec[1]</text>
<rect x="208" y="176" width="32" height="32" stroke="black" fill="black"/>
<text dominant-baseline="central" text-anchor="middle" font-family="monospace" font-size="30" x="224" y="192" fill="white">M</text>
<text text-anchor="middle" font-family="monospace" font-size="8" x="224" y="172">rec[2]</text>
<rect x="208" y="240" width="32" height="32" stroke="black" fill="black"/>
<text dominant-baseline="central" text-anchor="middle" font-family="monospace" font-size="30" x="224" y="256" fill="white">M</text>
<text text-anchor="middle" font-family="monospace" font-size="8" x="224" y="236">rec[3]</text>
<rect x="208" y="304" width="32" height="32" stroke="black" fill="black"/>
<text dominant-baseline="central" text-anchor="middle" font-family="monospace" font-size="30" x="224" y="320" fill="white">M</text>
<text text-anchor="middle" font-family="monospace" font-size="8" x="224" y="300">rec[4]</text>
<rect x="272" y="48" width="32" height="32" stroke="black" fill="white"/>
<text dominant-baseline="central" text-anchor="middle" font-family="monospace" font-size="30" x="288" y="64">X</text>
<rect x="272" y="112" width="32" height="32" stroke="black" fill="black"/>
<text dominant-baseline="central" text-anchor="middle" font-family="monospace" font-size="30" x="288" y="128" fill="white">R</text>
<rect x="272" y="176" width="32" height="32" stroke="black" fill="black"/>
<text dominant-baseline="central" text-anchor="middle" font-family="monospace" font-size="30" x="288" y="192" fill="white">R</text>
<rect x="272" y="240" width="32" height="32" stroke="black" fill="black"/>
<text dominant-baseline="central" text-anchor="middle" font-family="monospace" font-size="30" x="288" y="256" fill="white">R</text>
<rect x="272" y="304" width="32" height="32" stroke="black" fill="black"/>
<text dominant-baseline="central" text-anchor="middle" font-family="monospace" font-size="30" x="288" y="320" fill="white">R</text>
<rect x="336" y="48" width="32" height="32" stroke="black" fill="black"/>
<text dominant-baseline="central" text-anchor="middle" font-family="monospace" font-size="30" x="352" y="64" fill="white">M</text>
<text text-anchor="middle" font-family="monospace" font-size="8" x="352" y="44">rec[5]</text>
<rect x="336" y="112" width="32" height="32" stroke="black" fill="black"/>
<text dominant-baseline="central" text-anchor="middle" font-family="monospace" font-size="30" x="352" y="128" fill="white">M</text>
<text text-anchor="middle" font-family="monospace" font-size="8" x="352" y="108">rec[6]</text>
<rect x="336" y="176" width="32" height="32" stroke="black" fill="black"/>
<text dominant-baseline="central" text-anchor="middle" font-family="monospace" font-size="30" x="352" y="192" fill="white">M</text>
<text text-anchor="middle" font-family="monospace" font-size="8" x="352" y="172">rec[7]</text>
<rect x="336" y="240" width="32" height="32" stroke="black" fill="black"/>
<text dominant-baseline="central" text-anchor="middle" font-family="monospace" font-size="30" x="352" y="256" fill="white">M</text>
<text text-anchor="middle" font-family="monospace" font-size="8" x="352" y="236">rec[8]</text>
<rect x="336" y="304" width="32" height="32" stroke="black" fill="black"/>
<text dominant-baseline="central" text-anchor="middle" font-family="monospace" font-size="30" x="352" y="320" fill="white">M</text>
<text text-anchor="middle" font-family="monospace" font-size="8" x="352" y="300">rec[9]</text>
</svg>